<?xml version="1.0" encoding="UTF-8" standalone="no"?>
<!-- Created with Inkscape (http://www.inkscape.org/) -->

<svg
   xmlns:dc="http://purl.org/dc/elements/1.1/"
   xmlns:cc="http://creativecommons.org/ns#"
   xmlns:rdf="http://www.w3.org/1999/02/22-rdf-syntax-ns#"
   xmlns:svg="http://www.w3.org/2000/svg"
   xmlns="http://www.w3.org/2000/svg"
   xmlns:sodipodi="http://sodipodi.sourceforge.net/DTD/sodipodi-0.dtd"
   xmlns:inkscape="http://www.inkscape.org/namespaces/inkscape"
   width="128px"
   height="128px"
   viewBox="0 0 64 64"
   version="1.1"
   id="SVGRoot"
   inkscape:version="0.92.2 (5c3e80d, 2017-08-06)"
   sodipodi:docname="logo_for_black_bkgrd.svg"
   inkscape:export-filename="C:\Users\Brandt\Desktop\logo_1.svg.png"
   inkscape:export-xdpi="92.906685"
   inkscape:export-ydpi="92.906685">
  <sodipodi:namedview
     id="base"
     pagecolor="#ffffff"
     bordercolor="#666666"
     borderopacity="1.0"
     inkscape:pageopacity="0.0"
     inkscape:pageshadow="2"
     inkscape:zoom="8"
     inkscape:cx="8.9399518"
     inkscape:cy="35.806148"
     inkscape:document-units="px"
     inkscape:current-layer="layer3"
     showgrid="false"
     inkscape:window-width="1920"
     inkscape:window-height="1018"
     inkscape:window-x="-8"
     inkscape:window-y="-8"
     inkscape:window-maximized="1"
     inkscape:grid-bbox="true" />
  <defs
     id="defs3775" />
  <metadata
     id="metadata3778">
    <rdf:RDF>
      <cc:Work
         rdf:about="">
        <dc:format>image/svg+xml</dc:format>
        <dc:type
           rdf:resource="http://purl.org/dc/dcmitype/StillImage" />
        <dc:title></dc:title>
      </cc:Work>
    </rdf:RDF>
  </metadata>
  <g
     inkscape:groupmode="layer"
     id="layer3"
     inkscape:label="Layer 3">
    <path
       style="fill:#aa0000;stroke-width:1.04607618"
       d="M 32.962891 4.9570312 L 31.453125 9.78125 A 20.85545 20.85545 0 0 1 32.056641 9.7597656 A 20.85545 20.85545 0 0 1 34.328125 9.8925781 L 32.962891 4.9570312 z M 18.089844 9.5175781 L 19.578125 13.929688 A 20.85545 20.85545 0 0 1 21.808594 12.480469 L 18.089844 9.5175781 z M 47.675781 10.009766 L 43.4375 13.160156 A 20.85545 20.85545 0 0 1 45.818359 14.96875 L 47.675781 10.009766 z M 8.7363281 21.949219 L 12.158203 24.378906 A 20.85545 20.85545 0 0 1 13.019531 22.138672 L 8.7363281 21.949219 z M 56.609375 22.746094 L 51.380859 22.804688 A 20.85545 20.85545 0 0 1 52.279297 25.607422 L 56.609375 22.746094 z M 11.767578 35.330078 L 8.4785156 37.503906 L 12.380859 37.460938 A 20.85545 20.85545 0 0 1 11.767578 35.330078 z M 52.322266 35.441406 A 20.85545 20.85545 0 0 1 51.503906 38.085938 L 56.349609 38.300781 L 52.322266 35.441406 z M 45.5625 46.474609 A 20.85545 20.85545 0 0 1 43.560547 47.994141 L 46.998047 50.732422 L 45.5625 46.474609 z M 18.751953 46.666016 L 17.412109 50.240234 L 20.486328 47.953125 A 20.85545 20.85545 0 0 1 18.751953 46.666016 z M 31.052734 51.419922 L 32.125 55.292969 L 33.333984 51.425781 A 20.85545 20.85545 0 0 1 32.056641 51.470703 A 20.85545 20.85545 0 0 1 31.052734 51.419922 z "
       id="path4680" />
  </g>
  <g
     inkscape:groupmode="layer"
     id="layer2"
     inkscape:label="Layer 2">
    <path
       style="fill:#aa0000"
       d="M 32.056641 10.466797 A 20.148344 20.148344 0 0 0 22.578125 12.871094 L 22.578125 13.660156 L 22.578125 18.568359 L 21.552734 18.568359 L 20.527344 18.568359 L 20.527344 16.048828 L 20.527344 14.388672 L 20.183594 14.388672 A 20.148344 20.148344 0 0 0 16.693359 17.644531 L 16.693359 18.568359 L 15.957031 18.568359 A 20.148344 20.148344 0 0 0 12.955078 24.332031 C 12.989979 24.328659 13.025066 24.319476 13.058594 24.324219 C 13.316755 24.360732 13.341395 24.45616 13.359375 24.46875 C 13.480975 24.553923 13.670243 24.709584 14.085938 25.054688 C 14.501632 25.39979 15.122517 25.920508 16.027344 26.681641 C 16.388759 26.985661 16.872936 27.388892 17.097656 27.574219 C 17.332308 27.767739 17.805354 28.171058 18.162109 28.480469 C 18.51042 28.782555 18.95266 29.149097 19.099609 29.259766 L 19.705078 29.714844 L 19.371094 30.369141 C 19.304525 30.499625 19.229792 30.613021 19.132812 30.712891 C 19.035837 30.812761 18.915249 30.940448 18.654297 30.929688 C 18.517144 30.923767 18.500094 30.905096 18.427734 30.884766 C 18.355377 30.864426 18.270165 30.838751 18.171875 30.806641 C 17.975293 30.74242 17.730117 30.65656 17.478516 30.5625 C 16.452238 30.178842 15.058454 29.662746 13.34375 29.033203 C 12.862771 28.856615 12.43616 28.695259 12.046875 28.548828 A 20.148344 20.148344 0 0 0 11.908203 30.615234 A 20.148344 20.148344 0 0 0 16.642578 43.550781 C 16.653832 43.531472 16.66006 43.517881 16.671875 43.498047 C 16.818178 43.252462 17.346007 42.351673 17.837891 41.507812 C 18.330237 40.663142 18.923873 39.645883 19.158203 39.246094 C 19.391443 38.84816 19.652662 38.399462 19.732422 38.259766 C 19.818956 38.108214 19.935716 37.911917 20.003906 37.802734 L 20.332031 37.277344 L 21.015625 37.660156 C 21.140816 37.730521 21.246387 37.803524 21.341797 37.904297 C 21.389502 37.954683 21.437583 38.011313 21.476562 38.101562 C 21.515542 38.191813 21.544841 38.33894 21.488281 38.486328 C 21.453231 38.577842 21.452361 38.562773 21.431641 38.601562 C 21.410921 38.640357 21.383499 38.68864 21.349609 38.75 C 21.281822 38.872719 21.188201 39.042115 21.074219 39.244141 C 20.846255 39.648191 20.538158 40.187296 20.205078 40.767578 C 19.540051 41.926165 18.751797 43.308211 18.453125 43.833984 C 18.300493 44.102671 18.153759 44.345457 18.039062 44.527344 C 17.981715 44.618287 17.934235 44.692956 17.890625 44.753906 C 17.869357 44.783633 17.84909 44.809036 17.822266 44.839844 A 20.148344 20.148344 0 0 0 32.056641 50.763672 A 20.148344 20.148344 0 0 0 52.205078 30.615234 A 20.148344 20.148344 0 0 0 50.613281 22.832031 C 50.409444 23.206045 50.152933 23.662759 49.853516 24.171875 C 49.210182 25.265752 48.396199 26.650084 48.044922 27.248047 C 47.868642 27.548111 47.706752 27.819755 47.587891 28.017578 C 47.528459 28.11649 47.478999 28.198299 47.443359 28.255859 C 47.425539 28.284639 47.411498 28.306192 47.398438 28.326172 C 47.391908 28.336162 47.387563 28.344745 47.376953 28.359375 C 47.371643 28.366695 47.365976 28.373731 47.347656 28.394531 C 47.338496 28.404931 47.291248 28.447081 47.291016 28.447266 C 47.2909 28.447356 47.185628 28.509733 47.185547 28.509766 C 47.185506 28.509782 47.025391 28.113281 47.025391 28.113281 L 46.810547 28.484375 C 46.798963 28.477503 46.665341 28.391104 46.527344 28.302734 C 46.46335 28.261746 46.394587 28.221516 46.341797 28.191406 C 46.289007 28.161306 46.209719 28.131923 46.287109 28.158203 C 46.286888 28.158128 46.033321 27.929945 46.033203 27.929688 C 46.033083 27.92943 45.994156 27.766063 45.994141 27.765625 C 45.994141 27.765185 45.9975 27.707283 46 27.689453 C 46.0025 27.671623 46.005313 27.658998 46.007812 27.648438 C 46.017822 27.606178 46.023297 27.591562 46.029297 27.576172 C 46.041387 27.545392 46.051543 27.523194 46.064453 27.496094 C 46.090272 27.441889 46.125402 27.374652 46.169922 27.289062 C 46.258961 27.117887 46.387422 26.880036 46.542969 26.59375 C 46.854063 26.021178 47.273703 25.259634 47.703125 24.490234 C 48.132547 23.720835 48.569913 22.943247 48.914062 22.341797 C 49.086138 22.041072 49.236139 21.783576 49.349609 21.591797 C 49.406348 21.495907 49.453328 21.417959 49.492188 21.355469 C 49.531049 21.292976 49.543609 21.265136 49.599609 21.197266 C 49.657031 21.127677 49.719771 21.0912 49.779297 21.068359 A 20.148344 20.148344 0 0 0 32.056641 10.466797 z M 21.910156 19.074219 C 22.087599 19.074219 22.206019 19.179624 22.255859 19.240234 C 22.305709 19.300853 22.321887 19.341723 22.335938 19.376953 C 22.364037 19.447403 22.371559 19.498144 22.380859 19.552734 C 22.399399 19.661918 22.408203 19.78007 22.408203 19.912109 L 22.408203 20.648438 L 20.576172 21.138672 C 20.158686 21.250055 19.772656 21.350408 19.486328 21.423828 C 19.343164 21.460538 19.225172 21.490659 19.138672 21.511719 C 19.09542 21.522249 19.06017 21.530709 19.03125 21.537109 C 19.01678 21.540309 19.005054 21.542122 18.990234 21.544922 C 18.982824 21.546322 18.975111 21.548981 18.962891 21.550781 C 18.951261 21.552481 18.893319 21.554451 18.886719 21.554688 C 18.885777 21.554668 18.806321 21.546009 18.775391 21.537109 C 18.744451 21.528219 18.718076 21.518213 18.697266 21.507812 C 18.655646 21.487013 18.629995 21.468142 18.609375 21.451172 C 18.568135 21.417232 18.547477 21.391781 18.529297 21.369141 C 18.492927 21.323864 18.470916 21.287064 18.447266 21.246094 C 18.399973 21.164149 18.356823 21.070435 18.314453 20.966797 L 18.072266 20.375 L 18.240234 20.375 C 18.259414 20.310083 18.267081 20.239839 18.300781 20.193359 C 18.359928 20.111782 18.412898 20.071683 18.455078 20.039062 C 18.527049 19.983446 18.598238 19.943346 18.673828 19.910156 C 18.749421 19.876966 18.813143 19.841797 18.960938 19.841797 C 18.861168 19.841797 18.907851 19.84735 18.925781 19.84375 C 18.943711 19.84012 18.974722 19.833319 19.013672 19.824219 C 19.09158 19.805919 19.202461 19.778471 19.335938 19.744141 C 19.602888 19.675487 19.958486 19.57956 20.337891 19.474609 C 20.720929 19.368655 21.077252 19.271392 21.34375 19.201172 C 21.476999 19.166072 21.587492 19.137597 21.669922 19.117188 C 21.711141 19.106977 21.746461 19.10015 21.775391 19.09375 C 21.789861 19.09045 21.801016 19.086884 21.816406 19.083984 C 21.831786 19.081084 21.826626 19.074219 21.910156 19.074219 z M 22.101562 21.410156 C 22.118372 21.409556 22.137324 21.408863 22.177734 21.414062 C 22.197944 21.416653 22.263112 21.433404 22.263672 21.433594 C 22.263952 21.433694 22.333776 21.464728 22.333984 21.464844 C 22.334194 21.464964 22.429551 21.536973 22.429688 21.537109 C 22.430227 21.537649 22.477454 21.591398 22.490234 21.611328 C 22.503014 21.631258 22.511078 21.646576 22.517578 21.660156 C 22.530588 21.687326 22.535916 21.706856 22.541016 21.722656 C 22.551246 21.754256 22.556247 21.774062 22.560547 21.794922 C 22.569117 21.836642 22.574778 21.876512 22.580078 21.919922 C 22.590618 22.006752 22.598416 22.108261 22.603516 22.21875 L 22.636719 22.925781 L 21.373047 23.289062 C 20.619955 23.50507 20.330781 23.626413 19.990234 23.632812 C 19.819961 23.635997 19.553824 23.510041 19.458984 23.365234 C 19.364142 23.220428 19.358202 23.144503 19.326172 23.064453 C 19.281763 22.953476 19.245603 22.849066 19.220703 22.753906 C 19.208253 22.706324 19.197906 22.662809 19.191406 22.605469 C 19.188106 22.576798 19.184853 22.545108 19.189453 22.492188 C 19.191743 22.465731 19.196117 22.434352 19.210938 22.388672 C 19.218357 22.365832 19.229444 22.338574 19.246094 22.308594 C 19.262754 22.278604 19.317697 22.211599 19.318359 22.210938 C 19.318839 22.210458 19.358927 22.174212 19.373047 22.164062 C 19.387177 22.153922 19.398803 22.148178 19.408203 22.142578 C 19.426983 22.131458 19.439952 22.124441 19.451172 22.119141 C 19.473612 22.108511 19.489279 22.102103 19.505859 22.095703 C 19.539021 22.082953 19.573501 22.071594 19.613281 22.058594 C 19.692835 22.032584 19.794185 22.001867 19.914062 21.966797 C 20.153819 21.896652 20.464001 21.811756 20.773438 21.728516 C 21.082873 21.645275 21.390096 21.563919 21.626953 21.505859 C 21.745382 21.476829 21.845368 21.45391 21.923828 21.4375 C 21.96306 21.4293 21.995 21.423269 22.03125 21.417969 C 22.04937 21.415369 22.067953 21.411356 22.101562 21.410156 z M 22.320312 23.681641 C 22.482001 23.681641 22.603593 23.774107 22.658203 23.835938 C 22.712813 23.897768 22.732137 23.942519 22.748047 23.980469 C 22.779867 24.056372 22.790541 24.110599 22.800781 24.167969 C 22.821261 24.282711 22.830884 24.402325 22.833984 24.525391 C 22.837104 24.648456 22.833029 24.76917 22.818359 24.884766 C 22.811019 24.942563 22.803691 24.996349 22.775391 25.074219 C 22.761241 25.113153 22.744096 25.159479 22.691406 25.224609 C 22.63896 25.289433 22.518028 25.388431 22.357422 25.394531 C 22.431382 25.391731 22.408544 25.387372 22.402344 25.388672 C 22.396154 25.389972 22.382101 25.393937 22.363281 25.398438 C 22.325646 25.407498 22.269835 25.421843 22.203125 25.439453 C 22.069698 25.474667 21.891271 25.524425 21.703125 25.578125 L 20.662109 25.873047 L 20.320312 25.169922 C 20.265395 25.056878 20.218494 24.951841 20.183594 24.863281 C 20.166144 24.819005 20.151912 24.780615 20.138672 24.734375 C 20.132052 24.711255 20.124841 24.688328 20.119141 24.642578 C 20.116235 24.619702 20.111988 24.591822 20.117188 24.539062 C 20.119797 24.512685 20.140357 24.434344 20.140625 24.433594 C 20.140893 24.432844 20.24566 24.269956 20.246094 24.269531 C 20.246384 24.269251 20.290198 24.230603 20.304688 24.220703 C 20.319177 24.210793 20.330744 24.204319 20.339844 24.199219 C 20.357944 24.189089 20.369106 24.184088 20.378906 24.179688 C 20.398526 24.170907 20.411178 24.166709 20.423828 24.162109 C 20.449138 24.152849 20.47224 24.145419 20.5 24.136719 C 20.55553 24.119269 20.626764 24.099492 20.708984 24.076172 C 20.873416 24.029522 21.085703 23.970633 21.300781 23.914062 C 21.515859 23.857489 21.732184 23.803599 21.904297 23.761719 C 21.990353 23.740779 22.06454 23.722134 22.125 23.708984 C 22.15523 23.702454 22.181171 23.698059 22.207031 23.693359 C 22.232892 23.688739 22.237642 23.681641 22.320312 23.681641 z M 22.912109 25.9375 L 23.037109 26.714844 C 23.07587 26.957255 23.090794 27.23486 22.908203 27.472656 C 22.725612 27.710452 22.473145 27.770416 22.220703 27.816406 C 22.144204 27.830356 22.075349 27.843403 21.980469 27.845703 C 21.885591 27.848043 21.746229 27.827606 21.630859 27.753906 C 21.547132 27.700418 21.550573 27.636708 21.507812 27.580078 L 21.435547 27.595703 L 21.291016 27.275391 C 21.233539 27.147938 21.191469 27.030214 21.167969 26.90625 C 21.156199 26.844268 21.147497 26.780916 21.154297 26.697266 C 21.161085 26.613614 21.177691 26.483178 21.314453 26.359375 C 21.420992 26.263014 21.457612 26.266204 21.507812 26.246094 C 21.558011 26.225984 21.608403 26.207956 21.664062 26.191406 C 21.775387 26.158316 21.906086 26.127063 22.041016 26.101562 L 22.912109 25.9375 z M 43.873047 27.941406 C 44.045844 27.944844 44.217427 27.956994 44.388672 27.978516 C 45.758632 28.150686 47.047985 28.897924 47.763672 30.160156 C 48.913395 32.187908 48.669519 35.060062 47.158203 36.675781 C 46.201318 37.698779 44.542735 38.233039 43.101562 38.013672 C 42.035303 37.851368 41.161893 37.407513 40.455078 36.660156 C 39.564039 35.718023 39.125447 34.486437 39.123047 33.015625 C 39.120822 31.484174 39.590139 30.187204 40.53125 29.246094 C 41.438574 28.33877 42.663465 27.917342 43.873047 27.941406 z M 24.320312 27.96875 C 25.719289 28.045028 26.923385 28.77165 27.541016 29.945312 C 27.65214 30.156477 27.736685 30.316877 27.800781 30.460938 C 27.864807 30.604981 27.932127 30.733172 27.904297 30.953125 C 27.890383 31.063101 27.830633 31.189624 27.751953 31.271484 C 27.673275 31.353338 27.591244 31.395208 27.521484 31.423828 C 27.381964 31.481054 27.266641 31.497944 27.125 31.527344 C 26.993476 31.554664 26.863429 31.583392 26.761719 31.607422 C 26.660009 31.631452 26.545619 31.669444 26.605469 31.646484 C 26.479289 31.694884 26.353857 31.674164 26.279297 31.646484 C 26.204743 31.618804 26.161503 31.587114 26.126953 31.558594 C 26.057862 31.501561 26.020172 31.451657 25.982422 31.398438 C 25.906927 31.291997 25.844759 31.171917 25.787109 31.033203 C 25.593247 30.566711 25.272326 30.222477 24.880859 30.03125 C 24.710067 29.947814 24.309485 29.868134 23.912109 29.865234 C 23.514734 29.862364 23.104033 29.933251 22.912109 30.019531 C 22.39676 30.251182 22.049104 30.578121 21.804688 31.056641 C 21.560271 31.53516 21.428041 32.180851 21.431641 33.021484 C 21.435394 33.911643 21.584595 34.575286 21.853516 35.046875 C 22.122436 35.518464 22.503102 35.821718 23.080078 36.017578 C 23.396026 36.124828 24.285312 36.150693 24.595703 36.064453 C 25.183343 35.901198 25.838595 35.24668 26.019531 34.615234 C 26.047561 34.517394 26.075286 34.425146 26.097656 34.353516 C 26.108846 34.317696 26.117753 34.288479 26.126953 34.261719 C 26.131523 34.248329 26.134925 34.235613 26.140625 34.220703 C 26.143545 34.213253 26.146944 34.205509 26.152344 34.193359 C 26.157744 34.181209 26.190834 34.125857 26.191406 34.125 C 26.19155 34.124786 26.306374 34.007995 26.306641 34.007812 C 26.306911 34.007633 26.394144 33.963041 26.394531 33.962891 C 26.395311 33.962591 26.469818 33.938647 26.492188 33.935547 C 26.536928 33.929347 26.557942 33.931051 26.576172 33.931641 C 26.612632 33.932841 26.63288 33.936253 26.65625 33.939453 C 26.702987 33.945883 26.750904 33.955197 26.808594 33.966797 C 26.923966 33.990007 27.071536 34.024043 27.232422 34.064453 C 27.450545 34.119241 27.609414 34.163891 27.757812 34.238281 C 27.832013 34.275475 27.909225 34.320057 27.984375 34.404297 C 28.059527 34.488538 28.123047 34.631726 28.123047 34.763672 C 28.123047 34.9892 28.062404 35.086075 27.996094 35.248047 C 27.929782 35.410019 27.842784 35.591259 27.746094 35.775391 C 27.552708 36.143654 27.340208 36.507255 27.119141 36.751953 C 26.2072 37.761361 24.773298 38.191778 23.244141 38.001953 L 23.244141 38.009766 L 23.242188 38.009766 L 23.242188 38.001953 C 23.222277 37.999453 23.205487 38.008559 23.185547 38.005859 C 22.246297 37.878996 21.545782 37.57221 20.927734 37 C 20.290562 36.410091 19.80737 35.560191 19.552734 34.628906 C 19.30053 33.706537 19.287824 32.155955 19.552734 31.28125 C 20.213717 29.100623 22.026273 27.843712 24.320312 27.96875 z M 44.046875 29.847656 C 43.762494 29.827881 43.463937 29.85672 43.15625 29.935547 C 42.480421 30.108684 42.037185 30.395877 41.726562 30.837891 C 41.41594 31.279904 41.231309 31.908581 41.193359 32.787109 C 41.131179 34.226367 41.416931 34.979552 42.185547 35.609375 C 42.7929 36.107058 43.92268 36.284278 44.726562 35.984375 C 44.726562 35.984375 44.728516 35.984375 44.728516 35.984375 C 45.239606 35.792604 45.870972 35.198332 46.089844 34.707031 C 46.546274 33.682473 46.521764 32.237143 46.029297 31.232422 C 45.61978 30.396962 44.900019 29.906981 44.046875 29.847656 z M 28.544922 32.125 L 33.626953 32.125 L 38.738281 32.125 L 38.681641 32.986328 L 38.630859 33.791016 L 33.603516 33.816406 L 28.544922 33.839844 L 28.544922 32.982422 L 28.544922 32.980469 L 28.544922 32.125 z "
       id="path4618" />
  </g>
  <g
     inkscape:groupmode="layer"
     id="layer8"
     inkscape:label="Layer 4" />
  <g
     id="layer1"
     inkscape:groupmode="layer"
     inkscape:label="Layer 1">
    <path
       style="fill:#ffffff;fill-opacity:1;stroke:none;stroke-width:0.458;stroke-linejoin:miter;stroke-miterlimit:2.0999999;stroke-dasharray:none;stroke-opacity:1"
       d="m 10.230526,50.308927 v -4.478073 h 0.597078 0.59707 v 1.833881 1.833873 h 2.345657 2.345657 v -1.833873 -1.833881 h 0.597078 0.597078 V 50.308927 54.787 H 16.713066 16.115988 V 52.697231 50.60747 H 13.770331 11.424674 V 52.697231 54.787 h -0.59707 -0.597078 z m 6.909023,-5.945342 c -0.164196,-0.101715 -0.309878,-0.192381 -0.32374,-0.201468 -0.01386,-0.0091 0.09761,-0.222683 0.247721,-0.474665 0.15011,-0.251975 0.675645,-1.149044 1.167864,-1.99348 0.492211,-0.844438 1.086163,-1.8616 1.319888,-2.260357 0.233727,-0.398765 0.493188,-0.844514 0.576573,-0.99055 0.08339,-0.146045 0.201586,-0.345527 0.262656,-0.443313 l 0.111029,-0.17778 0.326024,0.183231 c 0.198062,0.111322 0.308758,0.228233 0.282034,0.297869 -0.02416,0.06308 -0.588291,1.062899 -1.253548,2.221893 -0.665264,1.159 -1.454862,2.539084 -1.754672,3.066861 -0.299809,0.52777 -0.571698,0.958939 -0.604201,0.958145 -0.03251,-6.96e-4 -0.193431,-0.08467 -0.357628,-0.186386 z m 6.12602,-6.812751 c -0.883193,-0.119292 -1.461763,-0.375306 -2.023561,-0.895438 -0.56385,-0.522026 -1.019096,-1.309354 -1.254139,-2.168984 -0.211613,-0.773918 -0.212622,-2.414561 -0.0021,-3.109681 0.614101,-2.025962 2.19735,-3.125292 4.333345,-3.008868 1.268065,0.06914 2.317604,0.709387 2.863595,1.746915 0.444421,0.844508 0.444295,0.845469 -0.121827,0.962992 -0.270523,0.05619 -0.534942,0.118646 -0.587594,0.138846 -0.05264,0.02019 -0.173289,-0.149895 -0.268087,-0.377996 -0.229814,-0.553003 -0.620821,-0.982717 -1.112928,-1.223106 -0.555789,-0.271499 -1.748127,-0.280118 -2.333773,-0.01685 -1.184622,0.532491 -1.741699,1.623138 -1.734124,3.39507 0.0079,1.873736 0.624505,2.954885 1.939463,3.401261 0.45657,0.154984 1.312105,0.181011 1.769872,0.05383 0.76619,-0.212859 1.492079,-0.949289 1.720116,-1.745112 0.05439,-0.189889 0.106433,-0.356473 0.115596,-0.370189 0.0092,-0.01371 0.270928,0.03893 0.581697,0.116995 0.412007,0.103487 0.565028,0.180196 0.565028,0.283231 0,0.253487 -0.574888,1.348242 -0.892772,1.700105 -0.814895,0.90199 -2.118874,1.311352 -3.557992,1.116979 z m 19.923742,0.0089 C 42.199276,37.409033 41.435795,37.01973 40.788933,36.335765 39.975251,35.475425 39.576077,34.374988 39.57382,32.986 c -0.0021,-1.445727 0.42954,-2.611836 1.283704,-3.466 1.866055,-1.866055 5.274027,-1.438639 6.555935,0.822219 1.045828,1.844513 0.797696,4.573142 -0.546549,6.010249 -0.828902,0.886172 -2.399619,1.401793 -3.677599,1.207266 z m 1.7108,-1.202858 c 0.649097,-0.242862 1.32463,-0.876285 1.604478,-1.504458 0.516323,-1.158994 0.488674,-2.701378 -0.06879,-3.838704 -0.628048,-1.281287 -1.959148,-1.884332 -3.36454,-1.524281 -1.495343,0.383085 -2.203609,1.390944 -2.283903,3.249981 -0.06531,1.511699 0.277703,2.459805 1.147783,3.17277 0.754297,0.618093 2.001558,0.805153 2.964987,0.444692 z M 28.995775,32.951777 v -0.427214 h 4.65334 4.653339 l -0.02597,0.405157 -0.02597,0.405156 -4.627341,0.02207 -4.62734,0.02208 z M 17.651326,30.130459 c -1.027613,-0.384157 -2.421698,-0.899477 -4.136883,-1.529197 -0.656784,-0.241134 -1.453415,-0.537901 -1.77029,-0.659492 l -0.576133,-0.221075 0.183239,-0.306236 c 0.100786,-0.168428 0.450449,-0.766836 0.77703,-1.329789 0.888991,-1.532456 0.810681,-1.431809 1.007045,-1.294274 0.153515,0.107527 0.828708,0.668064 2.637836,2.189887 0.362502,0.304934 0.845266,0.707959 1.072808,0.895613 0.227537,0.187653 0.703344,0.592385 1.057337,0.8994 0.353994,0.307016 0.786459,0.665773 0.961021,0.797237 l 0.317391,0.239018 -0.169856,0.332945 c -0.102406,0.20073 -0.228441,0.330529 -0.31739,0.32686 -0.08114,-0.0035 -0.550568,-0.156746 -1.043155,-0.340897 z m 29.128793,-2.217674 c -0.140738,-0.09014 -0.290751,-0.175713 -0.333363,-0.190181 -0.05675,-0.01929 3.298058,-6.030093 3.506615,-6.282864 0.05027,-0.06092 0.637552,0.277565 0.681856,0.393015 0.02179,0.05688 -0.486725,0.998403 -1.130085,2.092344 -0.643366,1.093933 -1.45725,2.478367 -1.808633,3.076511 -0.35139,0.598135 -0.643748,1.084721 -0.649694,1.081295 -0.0063,-0.0035 -0.125958,-0.08 -0.266696,-0.17012 z M 2.895019,22.928693 V 18.450619 H 3.49209 4.089168 v 1.8779 1.877891 l 2.324337,-0.0227 2.32433,-0.0227 0.02298,-1.855207 0.02298,-1.855201 h 0.595414 0.595413 v 4.478074 4.478072 H 9.377542 8.780463 V 25.316987 23.227219 H 6.434806 4.089148 v 2.089768 2.089769 H 3.492071 2.895 Z m 18.80956,4.140567 c -0.09406,-0.208577 -0.126401,-0.379193 -0.07986,-0.421324 0.04304,-0.03893 0.275816,-0.108139 0.51734,-0.15378 l 0.439141,-0.08298 0.05473,0.342087 c 0.06483,0.405449 -0.03189,0.531454 -0.469291,0.611136 -0.291788,0.0532 -0.310308,0.04135 -0.462034,-0.295145 z M 20.72863,24.952183 c -0.101756,-0.209461 -0.173672,-0.391941 -0.159794,-0.405518 0.03704,-0.0362 1.672726,-0.466471 1.773422,-0.466471 0.09788,0 0.119502,0.851874 0.02172,0.855049 -0.03516,0.0013 -0.375898,0.09112 -0.757144,0.199928 l -0.693165,0.197847 z m -0.982097,-2.077416 c -0.07729,-0.193161 -0.123171,-0.368554 -0.101962,-0.389755 0.06058,-0.06058 2.469776,-0.708664 2.504659,-0.67378 0.01713,0.01713 0.03892,0.196469 0.04833,0.398486 l 0.01713,0.367307 -0.938268,0.269117 c -1.51266,0.433872 -1.368823,0.431184 -1.529899,0.02861 z m -1.013562,-2.09981 c -0.118813,-0.290639 -0.118158,-0.32961 0.0071,-0.426484 0.07587,-0.05863 0.18514,-0.10662 0.242834,-0.10662 0.05772,0 0.729321,-0.172724 1.492509,-0.383836 0.763188,-0.21111 1.418747,-0.383836 1.456791,-0.383836 0.03801,0 0.06914,0.183608 0.06914,0.408011 v 0.408012 l -1.514017,0.403922 c -0.832705,0.222161 -1.538694,0.4032 -1.568864,0.402309 -0.03015,-6.97e-4 -0.113689,-0.145557 -0.185607,-0.321478 z m 31.647433,-0.671662 c -0.03328,-0.03328 -0.06051,-2.050012 -0.06051,-4.48168 v -4.421201 h 0.597077 0.597077 v 1.833873 1.83388 h 2.345658 2.345657 v -1.83388 -1.833873 h 0.597837 0.597837 l -0.02207,4.456746 -0.02208,4.456746 h -0.554414 -0.554431 l -0.02284,-2.111089 -0.02284,-2.111096 h -2.342677 -2.342678 l -0.02284,2.111096 -0.02284,2.111089 -0.515279,0.02493 c -0.283405,0.01371 -0.542497,-0.0021 -0.575751,-0.03551 z M 15.092435,13.631365 V 9.153293 h 0.597071 0.597076 v 1.833879 1.833874 h 2.345658 2.345658 V 10.987172 9.153293 h 0.597077 0.597071 v 4.478072 4.478073 H 21.574975 20.977898 V 16.019668 13.9299 H 18.63224 16.286582 v 2.089768 2.08977 h -0.597076 -0.597071 z"
       id="path3797"
       inkscape:connector-curvature="0" />
  </g>
</svg>
