<?xml version="1.0" encoding="UTF-8" standalone="no"?>
<!-- Created with Inkscape (http://www.inkscape.org/) -->

<svg
   xmlns:dc="http://purl.org/dc/elements/1.1/"
   xmlns:cc="http://creativecommons.org/ns#"
   xmlns:rdf="http://www.w3.org/1999/02/22-rdf-syntax-ns#"
   xmlns:svg="http://www.w3.org/2000/svg"
   xmlns="http://www.w3.org/2000/svg"
   xmlns:sodipodi="http://sodipodi.sourceforge.net/DTD/sodipodi-0.dtd"
   xmlns:inkscape="http://www.inkscape.org/namespaces/inkscape"
   width="24px"
   height="24px"
   viewBox="0 0 64 64"
   version="1.1"
   id="SVGRoot"
   inkscape:version="0.92.2 (5c3e80d, 2017-08-06)"
   sodipodi:docname="resume.svg">
  <sodipodi:namedview
     id="base"
     pagecolor="#ffffff"
     bordercolor="#666666"
     borderopacity="1.0"
     inkscape:pageopacity="0.0"
     inkscape:pageshadow="2"
     inkscape:zoom="4"
     inkscape:cx="32"
     inkscape:cy="2"
     inkscape:document-units="px"
     inkscape:current-layer="layer1"
     showgrid="false"
     inkscape:window-width="1920"
     inkscape:window-height="1018"
     inkscape:window-x="-8"
     inkscape:window-y="-8"
     inkscape:window-maximized="1"
     inkscape:grid-bbox="true" />
  <defs
     id="defs891" />
  <metadata
     id="metadata894">
    <rdf:RDF>
      <cc:Work
         rdf:about="">
        <dc:format>image/svg+xml</dc:format>
        <dc:type
           rdf:resource="http://purl.org/dc/dcmitype/StillImage" />
        <dc:title></dc:title>
      </cc:Work>
    </rdf:RDF>
  </metadata>
  <g
     id="layer1"
     inkscape:groupmode="layer"
     inkscape:label="Layer 1">
    <g
       transform="matrix(0.1312189,0,0,0.1312189,1.63246,0.76493)"
       id="g26"
       style="fill:#ffffff">
      <g
         id="g24"
         style="fill:#ffffff">
        <g
           id="g22"
           style="fill:#ffffff">
          <path
             inkscape:connector-curvature="0"
             d="m 101,253.967 h 122.418 c 5.522,0 10,-4.477 10,-10 v -24.87 c 0,-21.267 -6.658,-40.821 -18.747,-55.059 -4.811,-5.666 -10.407,-10.382 -16.61,-14.077 17.358,-11.389 28.852,-31.002 28.852,-53.257 0,-35.126 -28.59,-63.703 -63.732,-63.703 -35.118,0 -63.688,28.577 -63.688,63.703 0,21.865 11.081,41.187 27.919,52.659 -6.622,3.781 -12.587,8.693 -17.667,14.676 C 97.656,178.275 91,197.829 91,219.097 v 24.87 c 0,5.523 4.478,10 10,10 z M 119.492,96.703 C 119.491,72.605 139.09,53 163.18,53 c 24.114,0 43.732,19.605 43.732,43.703 0,24.086 -19.618,43.682 -43.732,43.682 -24.09,0 -43.688,-19.596 -43.688,-43.682 z M 111,219.097 c 0,-34.569 21.058,-58.712 51.209,-58.712 30.151,0 51.209,24.144 51.209,58.712 v 14.87 H 111 Z"
             id="path2"
             style="fill:#ffffff" />
          <path
             inkscape:connector-curvature="0"
             d="M 437.11,65.32 355.182,2.084 C 353.431,0.733 351.283,0 349.072,0 H 49 C 43.478,0 39,4.477 39,10 v 460 c 0,5.523 4.478,10 10,10 h 382 c 5.522,0 10,-4.477 10,-10 V 73.236 c 0,-3.099 -1.437,-6.023 -3.89,-7.916 z M 421,460 H 59 V 20 H 345.662 L 421,78.15 Z"
             id="path4"
             style="fill:#ffffff" />
          <path
             inkscape:connector-curvature="0"
             d="M 384.533,270.806 H 98.887 c -5.522,0 -10,4.477 -10,10 0,5.523 4.478,10 10,10 h 285.645 c 5.523,0 10,-4.477 10.001,-10 0,-5.523 -4.478,-10 -10,-10 z"
             id="path6"
             style="fill:#ffffff" />
          <path
             inkscape:connector-curvature="0"
             d="M 384.533,315.322 H 98.887 c -5.522,0 -10,4.477 -10,10 0,5.523 4.478,10 10,10 h 285.645 c 5.523,0 10,-4.477 10.001,-10 0,-5.523 -4.478,-10 -10,-10 z"
             id="path8"
             style="fill:#ffffff" />
          <path
             inkscape:connector-curvature="0"
             d="m 260,164.226 h 124.532 c 5.523,0 10,-4.477 10,-10 0,-5.523 -4.478,-10 -10,-10 H 260 c -5.523,0 -10,4.477 -10,10 0,5.523 4.477,10 10,10 z"
             id="path10"
             style="fill:#ffffff" />
          <path
             inkscape:connector-curvature="0"
             d="m 250,106 c 0,5.523 4.477,10 10,10 h 124.532 c 5.523,0 10,-4.477 10,-10 0,-5.523 -4.478,-10 -10,-10 H 260 c -5.523,0 -10,4.477 -10,10 z"
             id="path12"
             style="fill:#ffffff" />
          <path
             inkscape:connector-curvature="0"
             d="m 260,208.742 h 124.532 c 5.523,0 10,-4.477 10,-10 0,-5.523 -4.478,-10 -10,-10 H 260 c -5.523,0 -10,4.477 -10,10 0,5.523 4.477,10 10,10 z"
             id="path14"
             style="fill:#ffffff" />
          <path
             inkscape:connector-curvature="0"
             d="m 260,250 h 124.532 c 5.523,0 10,-4.477 10,-10 0,-5.523 -4.478,-10 -10,-10 H 260 c -5.523,0 -10,4.477 -10,10 0,5.523 4.477,10 10,10 z"
             id="path16"
             style="fill:#ffffff" />
          <path
             inkscape:connector-curvature="0"
             d="M 384.533,365 H 98.887 c -5.522,0 -10,4.477 -10,10 0,5.523 4.478,10 10,10 h 285.645 c 5.523,0 10.001,-4.477 10.001,-10 0,-5.523 -4.478,-10 -10,-10 z"
             id="path18"
             style="fill:#ffffff" />
          <path
             inkscape:connector-curvature="0"
             d="M 384.533,415.483 H 98.887 c -5.522,0 -10,4.477 -10,10 0,5.523 4.478,10 10,10 h 285.645 c 5.523,0 10,-4.477 10.001,-10 0,-5.523 -4.478,-10 -10,-10 z"
             id="path20"
             style="fill:#ffffff" />
        </g>
      </g>
    </g>
  </g>
</svg>
