<?xml version="1.0" standalone="no"?>
<!DOCTYPE svg PUBLIC "-//W3C//DTD SVG 20010904//EN"
 "http://www.w3.org/TR/2001/REC-SVG-20010904/DTD/svg10.dtd">
<svg version="1.0" xmlns="http://www.w3.org/2000/svg"
 width="700.000000pt" height="700.000000pt" viewBox="0 0 700.000000 700.000000"
 preserveAspectRatio="xMidYMid meet">
<metadata>
Created by potrace 1.14, written by Peter Selinger 2001-2017
</metadata>
<g transform="translate(0.000000,700.000000) scale(0.100000,-0.100000)"
fill="#000000" stroke="none">
<path d="M3597 6433 c-3 -10 -14 -47 -25 -83 -28 -92 -122 -389 -128 -405 -4
-10 15 -13 89 -14 52 -1 123 -4 156 -7 34 -3 61 -2 61 3 0 10 -141 517 -145
521 -1 1 -5 -5 -8 -15z"/>
<path d="M1650 5510 l0 -490 65 0 65 0 0 225 c0 124 3 226 8 226 4 1 118 3
254 4 167 1 248 -2 251 -9 1 -6 3 -109 2 -229 l-1 -218 66 3 65 3 0 485 0 485
-65 3 -65 3 1 -138 c0 -76 -1 -141 -3 -145 -2 -4 -73 48 -158 116 l-153 124
14 -47 c7 -25 33 -104 58 -176 24 -71 43 -131 42 -133 -3 -2 -246 -5 -294 -3
-23 1 -23 1 -22 154 1 83 1 173 0 200 l0 47 -65 0 -65 0 0 -490z"/>
<path d="M4985 5735 c-121 -90 -220 -168 -220 -174 0 -5 32 -32 70 -60 39 -27
94 -69 123 -92 29 -23 54 -40 56 -38 5 7 196 523 193 525 -1 1 -101 -71 -222
-161z"/>
<path d="M3428 5855 c-2 -1 -43 -5 -93 -9 -267 -19 -565 -101 -800 -220 l-60
-31 -3 -312 -2 -313 -113 0 -112 0 0 228 0 227 -24 -3 c-43 -4 -251 -184 -351
-303 -42 -51 -47 -61 -45 -103 l2 -46 -36 0 c-20 0 -41 -4 -47 -8 -21 -13
-144 -209 -198 -315 -30 -59 -67 -141 -84 -184 -43 -115 -45 -123 -30 -123 12
0 98 -69 233 -185 28 -23 70 -60 95 -80 76 -63 140 -117 229 -194 47 -40 103
-85 124 -98 20 -14 37 -30 37 -35 0 -16 -37 -82 -60 -105 -36 -39 -34 -39
-380 89 -118 43 -254 94 -302 113 -55 20 -88 29 -89 21 0 -6 -3 -22 -6 -36
-15 -71 -6 -373 16 -515 34 -223 125 -497 232 -695 69 -127 218 -346 253 -372
6 -3 65 89 134 205 68 117 127 219 133 227 5 8 25 44 45 80 47 83 96 160 102
160 9 0 77 -43 100 -63 12 -11 22 -32 22 -46 0 -14 -39 -93 -86 -176 -48 -82
-95 -166 -106 -185 -133 -232 -182 -317 -194 -335 -14 -21 -11 -25 58 -88 162
-145 303 -242 488 -336 243 -123 431 -181 755 -230 132 -20 488 -7 635 22 477
97 834 286 1171 619 340 336 577 835 626 1313 10 99 10 378 1 465 -22 193 -81
428 -145 578 l-18 42 -153 -263 c-84 -144 -167 -284 -184 -311 -30 -49 -30
-49 -43 -26 -12 22 -13 22 -23 4 -10 -19 -11 -19 -44 0 -45 26 -59 47 -53 74
3 13 51 105 107 205 55 100 114 207 131 237 79 143 138 242 155 262 13 15 11
23 -18 75 -165 294 -453 589 -755 773 -203 124 -493 240 -686 276 -24 4 -46 8
-49 9 -3 1 -27 5 -55 10 -27 4 -58 9 -69 11 -59 11 -359 26 -368 19z m-990
-970 c7 -14 12 -53 12 -85 l0 -59 -42 -11 c-24 -6 -65 -17 -93 -25 -157 -44
-245 -63 -264 -58 -13 3 -30 26 -46 59 -41 87 -25 100 205 162 180 49 213 51
228 17z m10 -242 c15 -14 21 -34 25 -84 l4 -66 -140 -40 c-91 -26 -150 -38
-166 -34 -32 9 -60 47 -68 94 -7 45 12 72 60 81 32 6 100 25 187 51 60 18 74
18 98 -2z m26 -252 c21 -24 29 -96 14 -133 -6 -16 -12 -28 -14 -28 -2 0 -50
-13 -106 -30 -56 -16 -103 -28 -104 -27 -2 1 -16 29 -33 61 -52 98 -45 109 85
147 119 34 136 35 158 10z m41 -286 c9 -75 -1 -112 -33 -129 -81 -40 -132 -22
-158 56 -22 68 -6 92 73 108 32 7 63 14 68 15 36 11 43 4 50 -50z m2415 -182
c163 -45 298 -177 340 -333 7 -25 12 -46 12 -47 -1 -2 4 -17 9 -35 10 -36 13
-176 4 -223 -40 -214 -150 -353 -327 -415 -159 -55 -325 -37 -454 49 -151 100
-223 242 -230 446 -6 180 37 311 139 421 126 136 321 189 507 137z m-2190 6
c117 -27 219 -106 278 -216 56 -106 41 -141 -71 -167 -70 -16 -91 -7 -121 51
-50 100 -105 134 -215 134 -141 1 -220 -67 -254 -218 -13 -59 -15 -180 -3
-243 13 -68 53 -137 97 -169 56 -41 109 -54 191 -48 57 4 74 9 111 38 53 40
81 81 97 138 16 59 41 68 125 46 75 -21 106 -50 99 -92 -10 -55 -86 -183 -135
-227 -95 -85 -195 -117 -349 -112 -141 5 -210 31 -301 113 -184 166 -229 520
-95 746 85 146 246 236 421 236 44 0 100 -4 125 -10z m1491 -451 c6 -9 1 -141
-6 -163 -2 -7 -186 -12 -553 -13 l-551 -3 1 93 0 94 552 0 c308 0 554 -4 557
-8z"/>
<path d="M2320 4850 c-36 -10 -110 -30 -164 -44 -55 -15 -104 -29 -109 -33
-10 -6 -1 -51 14 -69 7 -8 51 -1 162 27 83 22 159 43 167 48 16 9 22 44 14 74
-6 20 -1 20 -84 -3z"/>
<path d="M2270 4578 c-63 -17 -117 -32 -119 -34 -7 -6 9 -53 24 -67 15 -15 21
-14 198 38 l58 17 -3 39 c-2 48 -3 48 -158 7z"/>
<path d="M2332 4340 c-35 -9 -68 -22 -72 -26 -7 -7 8 -55 26 -82 3 -6 159 41
165 49 3 5 3 25 1 44 -4 30 -8 35 -31 34 -14 0 -54 -9 -89 -19z"/>
<path d="M2389 4093 c-27 -11 -28 -13 -17 -45 14 -42 24 -48 61 -37 37 10 48
26 43 59 -3 14 -5 28 -5 32 -1 11 -47 6 -82 -9z"/>
<path d="M4729 3896 c-2 -2 -20 -6 -39 -9 -20 -2 -57 -14 -83 -25 -115 -51
-193 -133 -242 -257 -38 -95 -45 -264 -16 -370 83 -300 383 -429 670 -289 95
47 175 147 211 265 42 139 29 323 -32 447 -71 143 -242 242 -418 242 -26 0
-49 -2 -51 -4z m197 -140 c167 -77 244 -309 174 -527 -33 -103 -120 -188 -218
-213 -165 -43 -335 41 -393 195 -33 85 -35 252 -5 354 51 176 269 270 442 191z"/>
<path d="M4695 3715 c-104 -35 -159 -102 -180 -217 -14 -77 -10 -210 8 -263
24 -68 77 -128 142 -160 58 -28 187 -30 240 -4 101 50 162 152 169 280 15 276
-156 440 -379 364z"/>
<path d="M2500 3882 c-143 -37 -254 -142 -305 -287 -23 -64 -31 -242 -16 -329
27 -152 138 -300 261 -347 85 -33 228 -38 317 -10 120 36 212 123 259 247 20
54 16 59 -55 78 -47 12 -53 12 -58 -3 -31 -95 -97 -175 -173 -208 -46 -20
-171 -19 -229 1 -65 24 -126 78 -155 139 -36 76 -39 97 -40 232 -1 92 3 133
17 174 36 105 97 170 191 201 55 18 163 15 216 -6 52 -20 110 -78 135 -135 13
-27 24 -39 39 -39 30 0 94 19 101 30 9 14 -43 112 -83 156 -95 105 -262 147
-422 106z"/>
<path d="M3193 3442 c-20 -3 -23 -9 -23 -48 l0 -45 507 3 506 3 4 43 c3 29 0
42 -9 43 -41 3 -967 3 -985 1z"/>
<path d="M5506 5760 c-7 -24 0 -949 7 -956 7 -7 105 -10 111 -3 3 3 6 105 8
228 1 122 6 225 9 227 6 4 222 6 442 4 l67 0 0 -230 0 -231 62 3 62 3 2 483
c1 265 -1 482 -5 483 -11 1 -96 2 -111 0 -13 -1 -15 -29 -13 -199 l2 -198
-257 1 -257 0 -1 190 c-1 105 -2 195 -3 200 0 6 -27 11 -61 10 -45 0 -61 -4
-64 -15z"/>
<path d="M332 4979 c-16 -6 -17 -44 -16 -485 1 -264 2 -482 3 -485 1 -3 30 -6
65 -6 l63 0 1 211 c0 116 1 219 1 229 1 16 20 17 256 17 l255 0 0 -228 0 -228
65 -1 65 -1 2 249 3 249 113 -80 c104 -73 132 -86 132 -59 0 5 18 55 40 111
22 55 39 103 37 105 -5 4 -145 11 -254 12 l-73 1 0 195 0 195 -22 1 c-33 2
-101 -1 -105 -4 -1 -2 -4 -92 -5 -200 -1 -108 -5 -197 -8 -198 -3 0 -116 -3
-252 -5 l-248 -4 -1 32 c-1 18 -1 110 0 205 l1 171 -51 4 c-27 1 -58 0 -67 -3z"/>
<path d="M5414 4572 c-84 -145 -207 -365 -294 -525 l-40 -75 31 -23 c26 -18
33 -19 40 -8 5 8 35 57 66 109 31 52 66 111 79 130 69 108 242 423 238 434 -3
7 -20 20 -37 28 l-33 16 -50 -86z"/>
<path d="M5624 4496 c4 -10 84 -257 92 -284 2 -8 58 24 151 86 82 54 185 122
231 151 45 30 82 56 82 58 0 2 -126 3 -280 2 -194 -2 -279 -6 -276 -13z"/>
<path d="M1394 4258 c-15 -23 -35 -55 -46 -70 -10 -15 -18 -29 -18 -31 0 -3
-25 -47 -55 -98 -53 -91 -54 -94 -32 -101 12 -3 54 -18 92 -33 39 -15 111 -42
160 -60 50 -18 189 -69 310 -114 122 -44 228 -81 237 -81 9 0 25 15 36 34 l20
34 -41 33 c-23 19 -101 83 -172 144 -72 60 -155 130 -185 155 -29 25 -58 50
-64 55 -6 6 -49 41 -96 79 -47 39 -93 76 -102 84 -15 12 -19 9 -44 -30z"/>
<path d="M1140 3039 c-74 -50 -153 -101 -175 -115 l-40 -24 213 1 c192 1 213
3 209 18 -3 9 -17 60 -33 114 -15 53 -30 97 -33 96 -3 0 -67 -41 -141 -90z"/>
<path d="M5715 3088 c-4 -18 -23 -80 -42 -137 -18 -57 -30 -108 -26 -112 4 -4
83 -10 174 -13 92 -4 206 -9 254 -12 60 -4 85 -2 80 5 -3 6 -12 11 -20 11 -7
0 -15 3 -17 8 -1 4 -50 41 -108 82 -58 40 -144 102 -192 137 -48 35 -89 63
-92 63 -2 0 -8 -15 -11 -32z"/>
<path d="M2233 2848 c-71 -112 -391 -673 -387 -680 3 -4 19 -15 36 -24 30 -16
32 -15 49 7 10 13 26 40 37 59 10 19 65 116 122 215 57 99 130 227 163 285
l58 105 -26 22 c-30 26 -40 28 -52 11z"/>
<path d="M1117 1507 c1 -264 4 -485 6 -491 4 -9 36 -11 114 -7 10 1 13 57 15
228 l3 228 249 0 c225 0 249 -1 255 -17 3 -9 6 -111 5 -227 -1 -236 -7 -220
80 -211 l50 5 -1 475 c-1 261 -2 480 -2 486 -1 16 -121 18 -123 2 -1 -7 -2
-94 -4 -193 -1 -99 -2 -184 -3 -190 -1 -6 -90 -9 -248 -9 -137 1 -251 2 -255
3 -5 1 -8 91 -8 200 l0 199 -67 0 -68 0 2 -481z"/>
<path d="M4895 1847 c-44 -34 -92 -70 -105 -79 -25 -17 -25 -18 -5 -33 11 -8
27 -21 35 -28 17 -14 156 -125 180 -144 8 -6 35 -28 59 -48 83 -68 83 -67 35
78 -25 72 -49 141 -53 152 -5 11 -19 53 -31 93 -13 39 -25 72 -29 71 -3 0 -42
-28 -86 -62z"/>
<path d="M1991 1733 c-34 -92 -67 -179 -72 -192 -5 -13 -8 -25 -7 -27 3 -2
207 147 258 189 8 6 28 20 43 30 l28 18 -88 66 c-48 37 -91 71 -94 75 -3 5
-34 -66 -68 -159z"/>
<path d="M3404 1369 c-4 -6 85 -338 103 -387 7 -19 21 13 72 178 34 111 61
204 58 206 -7 7 -229 10 -233 3z"/>
</g>
</svg>
